<svg width="102" height="30" viewBox="0 0 102 30" fill="none" xmlns="http://www.w3.org/2000/svg">
<path d="M7.144 4.088C11.032 4.088 14.14 4.976 16.468 6.752C18.82 8.504 19.996 11.732 19.996 16.436C19.996 21.044 18.844 24.296 16.54 26.192C14.26 28.064 11.332 29 7.756 29H0.628V4.088H7.144ZM5.92 7.976V25.112H8.08C10.12 25.112 11.692 24.488 12.796 23.24C13.924 21.968 14.488 19.7 14.488 16.436C14.488 14.18 14.2 12.428 13.624 11.18C13.072 9.932 12.328 9.092 11.392 8.66C10.456 8.204 9.316 7.976 7.972 7.976H5.92ZM29.2261 9.92V29H24.1141V9.92H29.2261ZM26.6341 0.0919988C27.5461 0.0919988 28.2901 0.379999 28.8661 0.955998C29.4661 1.508 29.7661 2.216 29.7661 3.08C29.7661 3.944 29.4661 4.664 28.8661 5.24C28.2901 5.792 27.5461 6.068 26.6341 6.068C25.7221 6.068 24.9781 5.792 24.4021 5.24C23.8261 4.664 23.5381 3.944 23.5381 3.08C23.5381 2.216 23.8261 1.508 24.4021 0.955998C24.9781 0.379999 25.7221 0.0919988 26.6341 0.0919988ZM50.2942 9.92L44.1742 29H38.0902L31.8622 9.92H37.4062L41.1862 25.004L45.0382 9.92H50.2942ZM58.0275 9.92V29H52.9155V9.92H58.0275ZM55.4355 0.0919988C56.3475 0.0919988 57.0915 0.379999 57.6675 0.955998C58.2675 1.508 58.5675 2.216 58.5675 3.08C58.5675 3.944 58.2675 4.664 57.6675 5.24C57.0915 5.792 56.3475 6.068 55.4355 6.068C54.5235 6.068 53.7795 5.792 53.2035 5.24C52.6275 4.664 52.3395 3.944 52.3395 3.08C52.3395 2.216 52.6275 1.508 53.2035 0.955998C53.7795 0.379999 54.5235 0.0919988 55.4355 0.0919988ZM73.9116 9.344C75.5916 9.344 76.8996 9.86 77.8356 10.892C78.7716 11.9 79.2396 13.304 79.2396 15.104V29H74.1276V15.968C74.1276 14.936 73.9476 14.216 73.5876 13.808C73.2516 13.376 72.7356 13.16 72.0396 13.16C71.3196 13.16 70.6596 13.388 70.0596 13.844C69.4836 14.276 68.9196 14.936 68.3676 15.824V29H63.2556V9.92H67.6836L68.0796 12.332C68.8716 11.348 69.7356 10.604 70.6716 10.1C71.6316 9.596 72.7116 9.344 73.9116 9.344ZM92.3113 9.344C95.1673 9.344 97.3993 10.244 99.0073 12.044C100.615 13.82 101.419 16.292 101.419 19.46C101.419 21.476 101.047 23.252 100.303 24.788C99.5833 26.3 98.5273 27.476 97.1353 28.316C95.7673 29.156 94.1473 29.576 92.2753 29.576C89.4193 29.576 87.1753 28.688 85.5433 26.912C83.9353 25.112 83.1313 22.628 83.1313 19.46C83.1313 17.444 83.4913 15.68 84.2113 14.168C84.9553 12.632 86.0113 11.444 87.3793 10.604C88.7713 9.764 90.4153 9.344 92.3113 9.344ZM92.3113 13.16C91.0153 13.16 90.0433 13.676 89.3953 14.708C88.7713 15.716 88.4593 17.3 88.4593 19.46C88.4593 21.62 88.7713 23.216 89.3953 24.248C90.0433 25.256 91.0033 25.76 92.2753 25.76C93.5473 25.76 94.4953 25.256 95.1193 24.248C95.7673 23.216 96.0913 21.62 96.0913 19.46C96.0913 17.3 95.7793 15.716 95.1553 14.708C94.5313 13.676 93.5833 13.16 92.3113 13.16Z" fill="#252525"/>
</svg>
